<svg xmlns="http://www.w3.org/2000/svg" xmlns:xlink="http://www.w3.org/1999/xlink" width="64.271" height="50.825" viewBox="0 0 64.271 50.825">
  <defs>
    <radialGradient id="radial-gradient" cx="0.5" cy="0.5" r="0.5" gradientUnits="objectBoundingBox">
      <stop offset="0" stop-color="#707070"/>
      <stop offset="1" stop-color="#cd0b0b"/>
    </radialGradient>
  </defs>
  <path id="Union_1" data-name="Union 1" d="M20.858,59.747V41.42a3.818,3.818,0,0,1,7.629,0V59.747a3.818,3.818,0,0,1-7.629,0Zm22.356-5.956L29.727,40.831a3.566,3.566,0,0,1,0-5.184,3.926,3.926,0,0,1,5.395,0l13.486,12.96a3.564,3.564,0,0,1,0,5.184,3.926,3.926,0,0,1-5.395,0Zm-42.1,0a3.564,3.564,0,0,1,0-5.184L14.6,35.647a3.926,3.926,0,0,1,5.395,0,3.566,3.566,0,0,1,0,5.184L6.512,53.791a3.926,3.926,0,0,1-5.395,0ZM29.727,28.132a3.566,3.566,0,0,1,0-5.184L43.214,9.989a3.924,3.924,0,0,1,5.395,0,3.564,3.564,0,0,1,0,5.184L35.122,28.132a3.924,3.924,0,0,1-5.395,0Zm-15.123,0L1.118,15.173a3.564,3.564,0,0,1,0-5.184,3.924,3.924,0,0,1,5.395,0L20,22.948a3.566,3.566,0,0,1,0,5.184,3.924,3.924,0,0,1-5.395,0Zm6.253-6.288V3.814a3.815,3.815,0,0,1,7.629,0v18.03a3.815,3.815,0,0,1-7.629,0Z" transform="matrix(-0.017, 1, -1, -0.017, 64.271, 1.107)" fill="url(#radial-gradient)"/>
</svg>
